<svg width="24" height="24" viewBox="0 0 24 24" fill="none" xmlns="http://www.w3.org/2000/svg">
<path d="M3.09058 10.7747C2.89974 10.7782 2.77116 10.7999 2.70312 10.8214V12.1453C2.783 12.1651 2.88127 12.1716 3.0166 12.1716C3.51846 12.1712 3.83108 11.8942 3.83108 11.4294C3.83108 11.0111 3.56221 10.7665 3.09058 10.7747Z" fill="#637381"/>
<path d="M14.6401 21.9276C14.6715 21.9298 14.7033 21.9323 14.7355 21.9323H22.0016C22.8514 21.9323 23.5429 21.2408 23.5429 20.3911V3.54713C23.5429 2.69747 22.8514 2.00584 22.0016 2.00584H14.7355C14.7035 2.00584 14.6715 2.0087 14.6401 2.01047C14.6401 0.945961 13.7024 0.125134 12.6473 0.265948L2.19344 1.66106C1.19994 1.79365 0.458008 2.64117 0.458008 3.64348V20.3135C0.458008 21.3133 1.19623 22.1595 2.18673 22.2951L12.5869 23.7189C13.6727 23.8676 14.6401 23.0236 14.6401 21.9276ZM14.7355 2.88679H22.0016C22.3659 2.88679 22.6621 3.18319 22.6621 3.54734V20.3915C22.6621 20.7557 22.3659 21.052 22.0016 21.052H14.7355C14.7031 21.052 14.6715 21.0468 14.6401 21.0421V15.1428L19.9094 16.1508C19.9826 16.1648 20.0685 16.1517 20.1021 16.1213L22.4927 13.9337C22.4927 13.9337 22.6484 13.8402 22.4265 13.798C22.3736 13.7879 21.9906 13.7143 21.4409 13.6088L20.3466 14.609C20.2229 14.7226 20.0578 14.7394 19.9702 14.7394C19.9275 14.7394 19.8832 14.7353 19.8409 14.7271L14.7757 13.7585L14.6399 13.8825V13.2589L19.7271 14.2321C19.8002 14.2461 19.8868 14.2332 19.9193 14.2029L22.3104 12.015C22.3104 12.015 22.4661 11.9213 22.2446 11.8791C22.1917 11.8689 21.8085 11.7954 21.259 11.6897L20.1647 12.6904C20.0406 12.8038 19.8755 12.8205 19.7884 12.8205C19.7452 12.8205 19.7008 12.8164 19.6589 12.8087L14.6394 11.8483V11.3695L19.7271 12.3427C19.7997 12.3564 19.8868 12.3436 19.9193 12.3132L22.3099 10.1252C22.3099 10.1252 22.4656 10.0319 22.2446 9.98966C22.0231 9.94755 16.0196 8.79232 16.0196 8.79232C15.9461 8.77822 15.8596 8.79137 15.8274 8.82136L14.6394 9.90839V2.89626C14.6715 2.89163 14.7029 2.88679 14.7355 2.88679ZM19.3022 10.8405C18.7367 10.7974 17.9484 11.2378 17.9484 11.2378C17.9484 11.2378 18.2922 10.6364 17.8994 10.2039C17.5059 9.7715 15.5638 10.7817 15.5638 10.7817L14.6403 10.6049V10.5783L16.2226 9.13074L21.6632 10.1716L20.0561 11.6407L19.6595 11.5647C19.6953 11.2754 19.7852 10.8779 19.3022 10.8405ZM4.39423 12.4821C4.06441 12.8124 3.58115 12.9573 3.02272 12.953C2.89976 12.9521 2.78871 12.9444 2.70335 12.9306V14.5341L1.78905 14.5102V10.132C2.07156 10.0721 2.47167 10.0221 3.04144 10.0076C3.62502 9.99257 4.04622 10.1031 4.33074 10.3402C4.60412 10.5653 4.79045 10.9434 4.79045 11.393C4.79041 11.8426 4.64926 12.2241 4.39423 12.4821ZM6.50358 14.702C5.99369 14.6882 5.4956 14.5377 5.24885 14.3874L5.45013 13.5275C5.71806 13.6759 6.13263 13.8275 6.56436 13.8348C7.0337 13.8429 7.28356 13.6441 7.28356 13.3357C7.28356 13.0415 7.06778 12.8723 6.52463 12.667C5.78364 12.3954 5.30771 11.9699 5.30771 11.2982C5.30771 10.5104 5.93516 9.89061 6.99339 9.86284C7.50815 9.84916 7.89176 9.9521 8.16698 10.0723L7.93272 10.9455C7.74729 10.8566 7.41968 10.7284 6.97381 10.7361C6.53119 10.7431 6.31786 10.9545 6.31786 11.1972C6.31786 11.4953 6.57149 11.625 7.1556 11.8518C7.96721 12.1584 8.35372 12.5973 8.35372 13.2703C8.35311 14.0711 7.75384 14.7349 6.50358 14.702ZM12.6141 14.1979C12.0773 14.6224 11.2741 14.8073 10.3095 14.7813C9.74186 14.7665 9.34306 14.7204 9.07452 14.6774V9.95111C9.47057 9.87677 9.99226 9.82716 10.549 9.81287C11.4884 9.78866 12.1075 9.9421 12.5986 10.2933C13.1328 10.6698 13.4716 11.2848 13.4716 12.1743C13.4716 12.4613 13.4366 12.7183 13.3783 12.953C13.3675 12.9632 13.3662 12.9738 13.3701 12.9844C13.23 13.5209 12.9556 13.9227 12.6141 14.1979Z" fill="#637381"/>
<path d="M10.6656 10.6595C10.4179 10.6639 10.2591 10.6883 10.165 10.7115V13.8965C10.2593 13.9199 10.411 13.9228 10.5491 13.9251C11.5628 13.9498 12.2362 13.4006 12.2362 12.2124C12.2434 11.1789 11.6298 10.643 10.6656 10.6595Z" fill="#637381"/>
<path d="M20.1929 10.4475C20.5197 10.5098 20.8569 10.4949 20.9459 10.4134C21.0349 10.3318 20.8418 10.2154 20.515 10.1528C20.3915 10.1293 20.2681 10.1168 20.1563 10.1144C20.1344 10.0917 20.0931 10.0721 20.0346 10.0608L19.9485 10.0446C19.8388 10.0234 19.7144 10.041 19.6544 10.0829C19.3765 10.0434 19.1364 10.0454 19.0854 10.0928C19.0234 10.1491 19.2505 10.2476 19.592 10.313C19.6918 10.3323 19.7898 10.3455 19.8805 10.3546C19.9589 10.3902 20.0647 10.4228 20.1929 10.4475Z" fill="#637381"/>
</svg>
