<svg width="24" height="24" viewBox="0 0 24 24" fill="none" xmlns="http://www.w3.org/2000/svg">
<path d="M14.6396 21.9278C14.6714 21.9296 14.7028 21.9323 14.735 21.9323H22.0012C22.8511 21.9323 23.5424 21.2408 23.5424 20.3911V3.54713C23.5424 2.69747 22.8511 2.00584 22.0012 2.00584H14.735C14.7031 2.00584 14.6714 2.00899 14.6396 2.01047V2.01047C14.6396 0.945963 13.702 0.125137 12.6469 0.265956L2.19344 1.66105C1.19993 1.79364 0.458008 2.64116 0.458008 3.64348V20.3136C0.458008 21.3133 1.19622 22.1595 2.18672 22.2951L12.5866 23.7189C13.6724 23.8676 14.6396 23.0237 14.6396 21.9278V21.9278ZM14.7351 2.88679H22.0012C22.3655 2.88679 22.6617 3.18319 22.6617 3.54734V20.3915C22.6617 20.7555 22.3655 21.052 22.0012 21.052H14.7351C14.7026 21.052 14.6711 21.0468 14.6397 21.0421V13.0754C15.046 14.6212 16.4489 15.7627 18.1221 15.7627C20.1133 15.7627 21.7273 14.1488 21.7273 12.1578H18.1221V8.55249C16.4487 8.55249 15.0458 9.69416 14.6397 11.24V2.89642C14.671 2.89183 14.7024 2.88679 14.7351 2.88679ZM4.76923 12.1699C4.43458 12.5027 3.94398 12.6493 3.37728 12.6449C3.25215 12.6438 3.13991 12.6363 3.05295 12.6223V14.2377L2.12489 14.2143V9.8032C2.41174 9.74311 2.81738 9.69228 3.39555 9.677C3.98847 9.66139 4.41561 9.77277 4.70451 10.0115C4.9833 10.2381 5.17151 10.6191 5.17151 11.0719C5.17172 11.525 5.02864 11.9097 4.76923 12.1699ZM8.68608 12.1767C8.32193 12.5244 7.78731 12.6769 7.17059 12.6723C7.03468 12.6715 6.91245 12.6636 6.81828 12.6489V14.3339L5.80854 14.308V9.71001C6.12075 9.64685 6.56158 9.59377 7.19062 9.57709C7.83576 9.56034 8.301 9.67548 8.61591 9.92424C8.91907 10.1608 9.12473 10.5584 9.12473 11.0311C9.12473 11.5039 8.96822 11.9058 8.68608 12.1767ZM13.3082 10.4113L11.9031 10.4342V14.4633L10.7653 14.4343V10.4525L9.45275 10.4741V9.55301L13.3082 9.45302V10.4113Z" fill="#F59E0B"/>
<path d="M3.44678 10.4501C3.2527 10.4536 3.12195 10.4759 3.05371 10.4974V11.8315C3.13412 11.8515 3.23378 11.8581 3.37141 11.8577C3.88088 11.8568 4.19846 11.5778 4.19846 11.1095C4.1985 10.6884 3.92582 10.4417 3.44678 10.4501Z" fill="#F59E0B"/>
<path d="M7.24526 10.3833C7.03452 10.3869 6.89209 10.4104 6.81836 10.4327V11.824C6.90598 11.8449 7.01412 11.8515 7.16359 11.8515C7.71846 11.8506 8.06409 11.5596 8.06409 11.0705C8.06409 10.6311 7.7665 10.3741 7.24526 10.3833Z" fill="#F59E0B"/>
<path d="M18.6123 11.5889V11.5899H22.2176C22.2176 10.576 21.797 9.66099 21.1229 9.0061L18.6123 11.5889Z" fill="#F59E0B"/>
<path d="M18.5729 10.9554L21.1218 8.40634C20.4049 7.68903 19.5104 7.33942 18.5703 7.35282L18.572 10.9546L18.5729 10.9554Z" fill="#F59E0B"/>
</svg>
