<svg width="24" height="24" viewBox="0 0 24 24" fill="none" xmlns="http://www.w3.org/2000/svg">
<path d="M6.63203 10.0919C6.39885 10.0953 6.24941 10.1185 6.16113 10.1413V13.231C6.2492 13.2536 6.39248 13.2561 6.52194 13.2587C7.47532 13.2841 8.10838 12.7526 8.10838 11.6006C8.11523 10.5987 7.53897 10.078 6.63203 10.0919Z" fill="#DC3545"/>
<path d="M14.64 21.9278C14.6715 21.9295 14.7033 21.9324 14.7355 21.9324H22.0016C22.8513 21.9324 23.5429 21.2408 23.5429 20.391V3.54716C23.5429 2.69749 22.8513 2.00587 22.0016 2.00587H14.7355C14.7035 2.00587 14.6715 2.00901 14.64 2.01048V2.01048C14.64 0.945968 13.7024 0.125133 12.6472 0.265948L2.19345 1.66104C1.19994 1.79363 0.458008 2.64115 0.458008 3.64346V20.3135C0.458008 21.3132 1.19623 22.1594 2.18672 22.295L12.587 23.7189C13.6728 23.8676 14.64 23.0237 14.64 21.9278V21.9278ZM22.0016 21.052H14.7355C14.703 21.052 14.6715 21.0469 14.64 21.0422V14.4334C16.154 14.1717 18.2565 13.9737 20.075 14.4009L20.2902 14.8183C21.1582 16.4596 22.0854 16.4488 22.4436 16.368C22.5258 16.3495 22.5701 16.3288 22.5701 16.3288L22.6183 16.3032C22.6346 16.2929 22.6473 16.2798 22.6621 16.2686V20.3914C22.6621 20.7555 22.3658 21.052 22.0016 21.052ZM15.2563 13.6501C16.3942 12.2623 17.3136 10.9668 17.9058 10.0894L17.908 10.0943L17.9144 10.0844C18.3793 11.0644 19.1456 12.5803 19.6733 13.615L19.6716 13.6146L19.6896 13.6493C18.1892 13.3929 16.578 13.4865 15.2529 13.6697L15.2722 13.6471L15.2563 13.6501ZM17.9329 7.17464C17.9785 7.09423 18.0452 7.07295 18.1647 7.07821C18.1669 7.07841 18.4043 7.09399 18.4928 7.2566C18.5466 7.35344 18.6244 7.66059 18.2056 8.40962C18.2056 8.40962 18.1509 8.49974 18.049 8.66239C17.8142 7.8378 17.8297 7.35629 17.9329 7.17464ZM20.963 14.6712C21.3935 14.8368 21.7801 15.0409 22.1185 15.2821C22.2157 15.4201 22.3056 15.6188 22.2893 15.7126C22.2884 15.7171 22.2876 15.7216 22.285 15.7261C22.146 15.7517 21.5934 15.7689 20.963 14.6712ZM14.7355 2.88677H22.0016C22.3658 2.88677 22.6621 3.1832 22.6621 3.54732V14.9077C22.6415 14.8782 22.6236 14.854 22.6131 14.8409L22.5851 14.8047L22.5486 14.7776C21.9848 14.366 21.3053 14.0489 20.5269 13.8345C19.972 12.7508 18.8227 10.4921 18.3395 9.43429C18.6193 9.00338 18.7696 8.75221 18.7765 8.74071C19.2123 7.96371 19.3075 7.35715 19.0665 6.92926C18.8481 6.54198 18.4129 6.42565 18.1905 6.41827C17.831 6.40192 17.5244 6.55568 17.3579 6.84852C17.1042 7.29566 17.1567 8.0789 17.5153 9.17496C17.5313 9.22561 17.5568 9.29052 17.5906 9.37223C17.0161 10.2412 15.9736 11.7443 14.6399 13.3587V2.89647C14.6715 2.89182 14.7028 2.88677 14.7355 2.88677ZM4.09059 11.8637C3.75526 12.1963 3.26233 12.3415 2.69336 12.3363C2.56822 12.335 2.45511 12.3273 2.36773 12.3131V13.9318L1.43636 13.906V9.48661C1.72406 9.42671 2.1312 9.37696 2.71228 9.36285C3.30604 9.34834 3.73609 9.4608 4.02608 9.70035C4.30571 9.92783 4.49438 10.3103 4.49438 10.764C4.49438 11.2183 4.35085 11.6034 4.09059 11.8637ZM8.46319 13.5256C7.96015 13.936 7.20402 14.1149 6.29662 14.0896C5.76206 14.0743 5.38706 14.0294 5.1343 13.9876V9.40114C5.50747 9.33007 5.99823 9.28338 6.52206 9.27062C7.4059 9.24901 7.98812 9.39943 8.44953 9.74108C8.95053 10.1072 9.26845 10.7033 9.26845 11.5655C9.26845 12.5001 8.92916 13.139 8.46319 13.5256ZM10.0004 9.223L13.1336 9.14818V10.0903L11.1407 10.1192V11.2565L13.0011 11.2519V12.185L11.1407 12.1721V14.1739L10.0001 14.1425L10.0004 9.223Z" fill="#DC3545"/>
<path d="M2.76298 10.1375C2.56849 10.1405 2.43711 10.1625 2.36816 10.1839V11.5204C2.4489 11.5407 2.54912 11.5475 2.68759 11.5475C3.19935 11.5479 3.51789 11.2687 3.51789 10.7995C3.51793 10.3774 3.24368 10.1297 2.76298 10.1375Z" fill="#DC3545"/>
</svg>
