<svg width="24" height="24" viewBox="0 0 24 24" fill="none" xmlns="http://www.w3.org/2000/svg">
<path d="M14.6397 21.9276C14.6714 21.9298 14.7028 21.9323 14.7351 21.9323H22.0012C22.8511 21.9323 23.5424 21.2408 23.5424 20.3911V3.54713C23.5424 2.69747 22.8511 2.00584 22.0012 2.00584H14.7351C14.7031 2.00584 14.6714 2.0087 14.6397 2.01067V2.01067C14.6397 0.94606 13.7019 0.12515 12.6467 0.265983L2.19344 1.66105C1.19993 1.79364 0.458008 2.64116 0.458008 3.64348V20.3136C0.458008 21.3133 1.19622 22.1595 2.18672 22.2951L12.5864 23.7189C13.6723 23.8676 14.6397 23.0236 14.6397 21.9276V21.9276ZM14.6397 14.7957H16.9911V15.6769H14.6397V14.7957ZM14.6397 14.6856V13.7884H16.9911V14.6856H14.6397ZM14.6397 13.6783V12.6489H16.9911V13.6783H14.6397ZM14.6397 12.5388V11.3865H16.9911V12.5388H14.6397ZM14.6397 11.2926V10.1949H16.9911V11.2926H14.6397ZM14.6397 10.1007V9.00302H16.9442H16.9912V10.1007H14.6397ZM14.7351 2.88679H22.0012C22.3655 2.88679 22.6617 3.18319 22.6617 3.54734V20.3915C22.6617 20.7555 22.3655 21.052 22.0012 21.052H14.7351C14.7027 21.052 14.6711 21.0471 14.6397 21.0421V15.7709H17.0853L22.4377 15.7707V8.79895H22.4329V7.7172H19.7357H19.6415H16.9442L14.6397 7.71741V2.89642C14.671 2.89163 14.7024 2.88679 14.7351 2.88679ZM22.3276 9.00282V15.6603H21.2998V9.32424H20.5941V15.6603H20.0062V9.97512H19.3005V15.6603H18.7826V10.6181H18.0769V15.6603H17.0853V11.3863V11.2924V10.1947V10.1005V9.00282H19.6412H19.7356H22.3276ZM19.7357 8.90905V7.81145H22.3388V8.79895H22.3276V8.90905H19.7357ZM19.6415 8.90905H17.0853H17.0385V7.81145H19.6413L19.6415 8.90905ZM4.04159 13.1706C4.33349 13.1758 4.65999 13.1129 4.85312 13.0343L5.00116 13.8505C4.82097 13.9417 4.41672 14.0333 3.89626 14.0193C2.45061 13.9808 1.72453 13.0059 1.72453 11.7408C1.72453 10.2253 2.71998 9.35574 3.99088 9.32231C4.49319 9.30884 4.87852 9.40821 5.05314 9.4996L4.85316 10.3304C4.65372 10.2447 4.3785 10.1678 4.0352 10.1736C3.27627 10.1863 2.69515 10.6824 2.69515 11.682C2.69511 12.5814 3.18878 13.1562 4.04159 13.1706ZM6.74914 14.0956C6.23438 14.0816 5.73211 13.9305 5.48307 13.7797L5.68607 12.916C5.95621 13.0648 6.37459 13.2175 6.80944 13.2247C7.28279 13.2329 7.53535 13.0329 7.53535 12.724C7.53535 12.4283 7.3174 12.2584 6.76909 12.0524C6.02245 11.7793 5.54185 11.3522 5.54185 10.678C5.54185 9.8866 6.1749 9.26407 7.24223 9.23613C7.76175 9.22225 8.14793 9.32539 8.42614 9.44643L8.18975 10.323C8.0026 10.2338 7.67229 10.1053 7.22204 10.1127C6.77622 10.12 6.56154 10.3324 6.56154 10.5759C6.56154 10.8752 6.81599 11.0053 7.40571 11.233C8.22453 11.5411 8.61501 11.9814 8.61501 12.6578C8.61469 13.4621 8.00919 14.1291 6.74914 14.0956ZM11.7993 14.1567L10.485 14.1227L8.93779 9.27017L10.1299 9.23953L10.7259 11.2982C10.895 11.8809 11.0493 12.4434 11.1672 13.0584L11.1896 13.0588C11.3151 12.4675 11.4712 11.8822 11.6425 11.3168L12.2886 9.18452L13.5288 9.15302L11.7993 14.1567Z" fill="#28A745"/>
</svg>
