<svg width="24" height="24" viewBox="0 0 24 24" fill="none" xmlns="http://www.w3.org/2000/svg">
<path d="M14.6396 21.9281C14.6714 21.9298 14.7028 21.9328 14.735 21.9328H22.0012C22.8511 21.9328 23.5424 21.2412 23.5424 20.3915V3.54742C23.5424 2.69776 22.8511 2.00612 22.0012 2.00612H14.735C14.7031 2.00612 14.6714 2.00895 14.6396 2.01075V2.01075C14.6396 0.946099 13.7019 0.125158 12.6466 0.265999L2.19343 1.66109C1.19993 1.79368 0.458008 2.6412 0.458008 3.64351V20.3136C0.458008 21.3133 1.19622 22.1595 2.18672 22.2951L12.5869 23.719C13.6725 23.8676 14.6396 23.0238 14.6396 21.9281V21.9281ZM14.6396 11.165V10.442H14.7458V10.1104L15.197 9.70485L14.6396 11.165ZM15.5582 9.66152H15.7531V9.55141H16.2489V9.6428L14.6396 13.8724V12.0662L15.5582 9.66152ZM22.6617 14.444H22.6157L22.6226 12.2597H22.6617V14.444ZM14.7351 2.88692H22.0012C22.3655 2.88692 22.6617 3.18319 22.6617 3.54742V11.7356H22.1943V11.8457H19.9804V11.7356H19.4488V12.2597H19.5369V12.7633H19.4488V13.2949H19.9804V13.1991H20.7622C20.5356 13.4213 20.2729 13.5589 19.9658 13.6165V13.5413H19.4415V13.6238C19.0996 13.578 18.8081 13.4351 18.5535 13.1886C18.3008 12.944 18.1501 12.6605 18.0959 12.3255H18.16V11.7941H18.0864C18.1369 11.4531 18.2873 11.1623 18.5435 10.9081C18.8003 10.6536 19.0949 10.5061 19.4415 10.4597V10.5422H19.9657V10.4719C20.2053 10.5145 20.4255 10.6114 20.623 10.7612V11.0339H21.1546V10.9392L21.8928 10.9445V11.0337H22.4244V10.5094H22.1923C21.947 10.1064 21.6223 9.77645 21.2257 9.52757C20.8419 9.28631 20.4188 9.14368 19.9653 9.10186V8.97541H19.4411V9.0994C18.7246 9.15065 18.101 9.43623 17.5859 9.94906C17.0707 10.4617 16.7817 11.0819 16.7257 11.7938H16.6011V12.3252H16.7271C16.7925 13.0326 17.0857 13.6467 17.6016 14.1525C18.1163 14.6578 18.7345 14.939 19.4411 14.9902V15.1003H19.9653V14.9872C20.4066 14.942 20.819 14.8014 21.1952 14.5691V14.9683H21.7195V14.8655H22.1938V14.9683H22.6613V20.3916C22.6613 20.7558 22.365 21.0521 22.0007 21.0521H14.7347C14.7022 21.0521 14.6706 21.0469 14.6392 21.0422V14.9606H14.7323V14.5665L14.7282 14.5433L16.5927 9.66152H16.7727V9.13741H16.2484V9.22524H15.7524V9.20566L16.6002 8.44382H16.9434V7.94024H16.4398V8.32642L15.5372 9.13737H15.2283V9.41505L14.6456 9.93841H14.6394V2.89634C14.671 2.89195 14.7024 2.88692 14.7351 2.88692ZM21.1956 13.9301V14.185C20.8239 14.4493 20.4111 14.6091 19.9658 14.6592V14.5758H19.4415V14.6633C18.8206 14.6132 18.2783 14.3631 17.828 13.9193C17.3782 13.4764 17.1181 12.9405 17.055 12.3256H17.1249V11.7939H17.0528C17.1081 11.1737 17.3646 10.6314 17.8172 10.1811C18.2701 9.73045 18.8155 9.47502 19.4415 9.42038V9.50754H19.9657V9.43004C20.3459 9.47055 20.7043 9.59344 21.0335 9.79644C21.3741 10.0061 21.6558 10.2829 21.8725 10.6199H21.1548V10.5098H20.8206C20.5708 10.3154 20.2838 10.1925 19.9657 10.1435V10.0107H19.4415V10.1311C19.0069 10.1805 18.6294 10.3631 18.3165 10.6763C18.0034 10.9892 17.8185 11.3649 17.7652 11.7941H17.6357V12.3256H17.7667C17.8245 12.7509 18.0133 13.1194 18.329 13.4234C18.6437 13.7262 19.0175 13.9034 19.4415 13.9518V14.0655H19.9657V13.9408C20.4306 13.8741 20.8217 13.6571 21.1303 13.2949H21.3969V12.7633H20.8727V12.8805H19.9804V12.7633H19.863V12.2597H19.9804V12.1718H22.1943V12.2597H22.2958C22.2949 12.439 22.2926 12.8019 22.2895 13.3482V14.4439H22.1943V14.5396H21.72V13.93L21.1956 13.9301ZM2.67488 14.3027C2.20259 14.2899 1.74165 14.1455 1.51289 14.0015L1.69922 13.1738C1.94732 13.3164 2.33097 13.4622 2.73013 13.4686C3.16494 13.4764 3.39531 13.285 3.39531 12.9887C3.39531 12.7057 3.19574 12.5432 2.69335 12.346C2.00786 12.0843 1.56708 11.6751 1.56708 11.0291C1.56708 10.2709 2.1477 9.6754 3.12685 9.64943C3.60335 9.63682 3.95717 9.73619 4.21154 9.85199L3.99523 10.6911C3.82417 10.6054 3.52102 10.4821 3.10858 10.489C2.69974 10.4957 2.50268 10.6992 2.50268 10.9325C2.50268 11.2191 2.73697 11.3439 3.2773 11.562C4.02718 11.857 4.38456 12.2787 4.38456 12.9254C4.38432 13.6944 3.83032 14.3334 2.67488 14.3027ZM7.29606 14.3554L6.09581 14.3244L4.68071 9.68363L5.77135 9.6557L6.31663 11.6244C6.4706 12.1808 6.61135 12.7185 6.71916 13.3064L6.73988 13.3069C6.85462 12.7417 6.99663 12.1823 7.15363 11.642L7.74323 9.60523L8.87434 9.57644L7.29606 14.3554ZM13.5271 14.2844C13.1625 14.3954 12.4795 14.542 11.8057 14.5244C10.8896 14.4998 10.2373 14.2577 9.78831 13.8135C9.34351 13.3882 9.10163 12.7535 9.10843 12.0439C9.11572 10.4381 10.2879 9.48972 11.9257 9.44725C12.5858 9.42984 13.1006 9.54367 13.3556 9.65713L13.1078 10.5749C12.8232 10.4597 12.4714 10.3683 11.9105 10.3778C10.9626 10.3932 10.2587 10.9274 10.2587 11.9866C10.2587 12.9956 10.8964 13.6015 11.8275 13.6174C12.0919 13.6217 12.3036 13.5956 12.3953 13.5529V12.5066L11.6099 12.5021V11.6262L13.5271 11.6195L13.5271 14.2844Z" fill="#0D6EFD"/>
</svg>
