<svg width="64" height="64" viewBox="0 0 64 64" fill="none" xmlns="http://www.w3.org/2000/svg">
<g clip-path="url(#clip0_1817_19433)">
<path d="M32 64C49.6731 64 64 49.6731 64 32C64 14.3269 49.6731 0 32 0C14.3269 0 0 14.3269 0 32C0 49.6731 14.3269 64 32 64Z" fill="#FFE4E6"/>
<path d="M27.8008 32.3052C27.8008 35.754 29.535 38.8055 32.1754 40.6336C34.8001 38.7761 36.5147 35.7168 36.5147 32.2563C36.5147 28.8252 34.8275 25.7894 32.24 23.928C29.5624 25.7522 27.8008 28.8271 27.8008 32.3052Z" fill="#DC3545"/>
<path d="M26.3874 32.3052C26.3874 28.5687 28.1744 25.2413 30.9382 23.1313C29.5348 22.4091 27.9435 22 26.2582 22C20.5918 22 16 26.5918 16 32.2582C16 37.9246 20.5918 42.5165 26.2582 42.5165C27.9161 42.5165 29.48 42.1211 30.8657 41.4223C28.1431 39.3085 26.3874 36.0084 26.3874 32.3052Z" fill="#DC3545"/>
<path d="M37.9278 42.3775C32.3729 42.3775 27.8555 37.8581 27.8555 32.3052C27.8555 26.7504 32.3749 22.2329 37.9278 22.2329C43.4826 22.2329 48.0001 26.7523 48.0001 32.3052C48.0001 37.8581 43.4826 42.3775 37.9278 42.3775ZM37.9278 23.6441C33.1519 23.6441 29.2667 27.5294 29.2667 32.3033C29.2667 37.0791 33.1519 40.9624 37.9278 40.9624C42.7036 40.9624 46.5888 37.0771 46.5888 32.3033C46.5888 27.5294 42.7036 23.6441 37.9278 23.6441Z" fill="#DC3545"/>
</g>
<defs>
<clipPath id="clip0_1817_19433">
<rect width="64" height="64" fill="white"/>
</clipPath>
</defs>
</svg>
