<svg width="64" height="64" viewBox="0 0 64 64" fill="none" xmlns="http://www.w3.org/2000/svg">
<g clip-path="url(#clip0_1817_19426)">
<path d="M32 64C49.6731 64 64 49.6731 64 32C64 14.3269 49.6731 0 32 0C14.3269 0 0 14.3269 0 32C0 49.6731 14.3269 64 32 64Z" fill="#FFEDD5"/>
<path d="M34.1813 26.2573C34.7376 25.6996 35.0813 24.9305 35.0813 24.0809C35.0813 22.3791 33.7015 20.9993 31.9997 20.9993C30.9236 20.9993 29.9778 21.5517 29.4267 22.3869C29.2807 22.5342 17.0145 37.6529 16.9 37.8263C16.3436 38.384 16 39.1531 16 40.0027C16 41.7045 17.3798 43.0843 19.0816 43.0843C20.1577 43.0843 21.1035 42.5318 21.6546 41.6966C21.8006 41.5494 34.0667 26.4307 34.1813 26.2573Z" fill="#F59E0B"/>
<path d="M41.279 33.4313C41.8367 32.8736 42.181 32.1032 42.181 31.253C42.181 29.5512 40.8012 28.1714 39.0994 28.1714C38.0233 28.1714 37.0769 28.7238 36.5257 29.5603C36.3778 29.7083 29.9358 37.6492 29.8199 37.8246C29.2623 38.3823 28.918 39.1527 28.918 40.0029C28.918 41.7047 30.2977 43.0845 31.9996 43.0845C33.0756 43.0845 34.0221 42.5321 34.5732 41.6956C34.7212 41.5476 41.1632 33.6061 41.279 33.4313Z" fill="#F59E0B"/>
<path d="M47.9203 24.785C48.3087 23.128 47.2803 21.4699 45.6233 21.0815C43.9663 20.6932 42.3082 21.7216 41.9199 23.3786C41.5315 25.0356 42.5599 26.6936 44.2169 27.082C45.8739 27.4704 47.532 26.442 47.9203 24.785Z" fill="#F59E0B"/>
<path d="M20.2198 26.9458C21.8016 26.3176 22.5746 24.5261 21.9465 22.9443C21.3183 21.3626 19.5268 20.5895 17.945 21.2177C16.3632 21.8459 15.5902 23.6374 16.2184 25.2192C16.8466 26.8009 18.6381 27.574 20.2198 26.9458Z" fill="#F59E0B"/>
</g>
<defs>
<clipPath id="clip0_1817_19426">
<rect width="64" height="64" fill="white"/>
</clipPath>
</defs>
</svg>
