<svg width="64" height="64" viewBox="0 0 64 64" fill="none" xmlns="http://www.w3.org/2000/svg">
<g clip-path="url(#clip0_1817_19447)">
<path d="M32 64C49.6731 64 64 49.6731 64 32C64 14.3269 49.6731 0 32 0C14.3269 0 0 14.3269 0 32C0 49.6731 14.3269 64 32 64Z" fill="#EDE9FE"/>
<path d="M32 15C23.1626 15 16 22.1626 16 31H48C48 22.1626 40.8345 15 32 15Z" fill="#624BFF"/>
<path d="M46.2484 32.8516C46.2484 40.71 39.8555 47.1 32 47.1C24.1415 47.1 17.7516 40.7071 17.7516 32.8516H16C16 41.6743 23.1773 48.8516 32 48.8516C40.8227 48.8516 48 41.6743 48 32.8516H46.2484Z" fill="#624BFF"/>
<path d="M32.0004 44.8442C38.6145 44.8442 43.996 39.4627 43.996 32.8486H42.2445C42.2445 38.4985 37.6473 43.0926 32.0004 43.0926C26.3506 43.0926 21.7564 38.4955 21.7564 32.8486H20.0078C20.0049 39.4657 25.3864 44.8442 32.0004 44.8442Z" fill="#624BFF"/>
</g>
<defs>
<clipPath id="clip0_1817_19447">
<rect width="64" height="64" fill="white"/>
</clipPath>
</defs>
</svg>
