<svg width="64" height="64" viewBox="0 0 64 64" fill="none" xmlns="http://www.w3.org/2000/svg">
<g clip-path="url(#clip0_1817_19439)">
<path d="M32 64C49.6731 64 64 49.6731 64 32C64 14.3269 49.6731 0 32 0C14.3269 0 0 14.3269 0 32C0 49.6731 14.3269 64 32 64Z" fill="#CFFAFE"/>
<path d="M31.9984 11C23.1639 11 16 18.1639 16 26.9984C16 35.8361 23.1639 42.9968 31.9984 42.9968V52.0047C31.9984 52.0047 47.9968 46.3089 47.9968 26.9952C48 18.1639 40.8361 11 31.9984 11ZM26.7427 26.9984C26.7427 24.0943 29.0943 21.7427 31.9984 21.7427C34.9025 21.7427 37.2541 24.0943 37.2541 26.9984C37.2541 29.9025 34.9025 32.2541 31.9984 32.2541C29.0975 32.2541 26.7427 29.9025 26.7427 26.9984Z" fill="#0EA5E9"/>
</g>
<defs>
<clipPath id="clip0_1817_19439">
<rect width="64" height="64" fill="white"/>
</clipPath>
</defs>
</svg>
