<svg width="64" height="64" viewBox="0 0 64 64" fill="none" xmlns="http://www.w3.org/2000/svg">
<g clip-path="url(#clip0_1817_19443)">
<path d="M32 64C49.6731 64 64 49.6731 64 32C64 14.3269 49.6731 0 32 0C14.3269 0 0 14.3269 0 32C0 49.6731 14.3269 64 32 64Z" fill="#DCFCE7"/>
<path d="M47.8827 27.2464L43.4795 20.3425C43.3411 20.129 43.1088 20 42.8555 20H32.0011C31.593 20 31.2622 20.3308 31.2622 20.7389C31.2622 21.1471 31.593 21.4779 32.0011 21.4779H42.4496L46.3297 27.5584L38.7174 35.7009L23.4411 20.2205C23.3027 20.0798 23.1173 20.0023 22.9203 20C22.8992 20 22.878 20.0047 22.8546 20.007C22.8335 20.0047 22.8124 20 22.7889 20H20.7058C20.4407 20 20.1967 20.1431 20.0654 20.3706L16.0985 27.2769C15.9366 27.5607 15.9765 27.9126 16.2017 28.1519L31.5226 44.4135C31.6586 44.5566 31.8487 44.641 32.0457 44.6457C32.0645 44.648 32.0809 44.648 32.0997 44.648C32.2826 44.648 32.4586 44.5659 32.6017 44.4111L47.8006 28.1495C48.0305 27.9032 48.0656 27.5326 47.8827 27.2464ZM22.6059 21.4779L37.7086 36.78L32.0598 42.8253L17.6538 27.5373L21.1327 21.4779H22.6059Z" fill="#28A745"/>
</g>
<defs>
<clipPath id="clip0_1817_19443">
<rect width="64" height="64" fill="white"/>
</clipPath>
</defs>
</svg>
