<svg width="116" height="31" viewBox="0 0 116 31" fill="none" xmlns="http://www.w3.org/2000/svg">
<path fill-rule="evenodd" clip-rule="evenodd" d="M1.84341 7.19534H14.0768C15.3813 7.19534 17.142 7.97551 18.5553 9.4856C19.9458 10.9714 20.9341 13.0986 20.7815 15.6928C20.5567 19.5148 18.0285 21.9068 15.8094 23.2176C14.635 23.9113 13.2078 24.121 11.6845 24.121H7.37358C6.91082 24.121 6.53568 24.4962 6.53568 24.9589C6.53568 25.4217 6.91082 25.7968 7.37358 25.7968H11.6845C13.3283 25.7968 15.1093 25.5775 16.6617 24.6604C19.1226 23.2068 22.1834 20.3989 22.4544 15.7912C22.637 12.6876 21.4467 10.1226 19.7789 8.34049C18.1338 6.58276 15.9564 5.51953 14.0768 5.51953H1.67583C0.84286 5.51953 0.167603 6.19479 0.167603 7.02776V28.143C0.167603 28.6057 0.542745 28.9809 1.00551 28.9809C1.46827 28.9809 1.84341 28.6057 1.84341 28.143V7.19534Z" fill="#F1F5F9"/>
<path fill-rule="evenodd" clip-rule="evenodd" d="M0 2.8379C0 2.37514 0.375143 2 0.837905 2H13.2389L13.2514 2.00009C15.2658 2.03016 18.2835 2.69889 20.8869 4.6138C23.5241 6.55362 25.6911 9.74238 25.9737 14.6884C26.2369 19.2943 24.4958 22.6251 22.0949 24.9168C19.7194 27.1843 16.7221 28.4166 14.431 28.9377C13.6764 29.1093 12.9225 29.1481 12.2121 29.1481H4.18952C3.72676 29.1481 3.35162 28.773 3.35162 28.3102V9.54114C3.35162 9.07838 3.72676 8.70324 4.18952 8.70324C4.65229 8.70324 5.02743 9.07838 5.02743 9.54114V27.4723H12.2121C12.8689 27.4723 13.4808 27.4352 14.0594 27.3036C16.1395 26.8305 18.8362 25.7107 20.9378 23.7046C23.0142 21.7226 24.5334 18.8583 24.3006 14.784C24.047 10.3454 22.1361 7.61296 19.8939 5.96375C17.6206 4.29161 14.9609 3.7029 13.2325 3.67581H0.837905C0.375143 3.67581 0 3.30067 0 2.8379Z" fill="#F1F5F9"/>
<path fill-rule="evenodd" clip-rule="evenodd" d="M6.70325 10.0442C6.70325 9.39629 7.22845 8.87109 7.87631 8.87109H12.7868L12.837 8.87718C13.8928 9.00515 15.316 9.47804 16.4914 10.5015C17.6937 11.5485 18.6015 13.1445 18.6015 15.4068C18.6015 19.3141 15.7157 21.2474 13.8818 21.9593C13.1906 22.2276 12.4766 22.2776 11.8532 22.2776H7.87631C7.22845 22.2776 6.70325 21.7524 6.70325 21.1045V10.0442ZM8.37906 10.5469V20.6018H11.8532C12.4035 20.6018 12.8722 20.5536 13.2753 20.3971C14.8188 19.7979 16.9257 18.308 16.9257 15.4068C16.9257 13.647 16.2414 12.5059 15.3909 11.7654C14.5311 11.0167 13.4667 10.6511 12.6832 10.5469H8.37906Z" fill="#F1F5F9"/>
<path d="M38.3466 25H31.6435V6.09091H38.402C40.304 6.09091 41.9413 6.46946 43.3139 7.22656C44.6866 7.97751 45.7422 9.05776 46.4808 10.4673C47.2256 11.8769 47.598 13.5634 47.598 15.527C47.598 17.4967 47.2256 19.1894 46.4808 20.6051C45.7422 22.0208 44.6804 23.1072 43.2955 23.8643C41.9167 24.6214 40.267 25 38.3466 25ZM35.6413 21.5746H38.1804C39.3622 21.5746 40.3563 21.3653 41.1626 20.9467C41.9751 20.522 42.5845 19.8665 42.9908 18.9801C43.4032 18.0876 43.6094 16.9366 43.6094 15.527C43.6094 14.1297 43.4032 12.9879 42.9908 12.1016C42.5845 11.2152 41.9782 10.5627 41.1719 10.1442C40.3655 9.72562 39.3714 9.51634 38.1896 9.51634H35.6413V21.5746ZM53.4897 25.2678C52.5848 25.2678 51.7785 25.1108 51.0706 24.7969C50.3628 24.4768 49.8026 24.0059 49.3902 23.3842C48.984 22.7564 48.7808 21.9747 48.7808 21.0391C48.7808 20.2512 48.9255 19.5895 49.2148 19.054C49.5041 18.5185 49.898 18.0876 50.3966 17.7614C50.8952 17.4351 51.4615 17.1889 52.0955 17.0227C52.7356 16.8565 53.4066 16.7396 54.1083 16.6719C54.9331 16.5857 55.5978 16.5057 56.1026 16.4318C56.6073 16.3518 56.9736 16.2348 57.2013 16.081C57.429 15.9271 57.5429 15.6993 57.5429 15.3977V15.3423C57.5429 14.7576 57.3583 14.3052 56.9889 13.9851C56.6258 13.665 56.1087 13.505 55.4378 13.505C54.7299 13.505 54.1667 13.6619 53.7482 13.9759C53.3296 14.2836 53.0526 14.6714 52.9172 15.1392L49.2794 14.8438C49.4641 13.982 49.8272 13.2372 50.3689 12.6094C50.9106 11.9754 51.6092 11.4891 52.4648 11.1506C53.3265 10.8059 54.3237 10.6335 55.4563 10.6335C56.2441 10.6335 56.9982 10.7259 57.7183 10.9105C58.4447 11.0952 59.0879 11.3814 59.648 11.7692C60.2143 12.157 60.6606 12.6555 60.9868 13.2649C61.313 13.8681 61.4762 14.5914 61.4762 15.4347V25H57.746V23.0334H57.6352C57.4075 23.4766 57.1028 23.8674 56.7212 24.206C56.3396 24.5384 55.881 24.8 55.3455 24.9908C54.81 25.1754 54.1914 25.2678 53.4897 25.2678ZM54.6161 22.5533C55.1947 22.5533 55.7056 22.4394 56.1487 22.2116C56.5919 21.9777 56.9397 21.6638 57.1921 21.2699C57.4444 20.8759 57.5706 20.4297 57.5706 19.9311V18.4261C57.4475 18.5062 57.2782 18.58 57.0628 18.6477C56.8535 18.7093 56.6165 18.7678 56.3519 18.8232C56.0872 18.8724 55.8225 18.9186 55.5578 18.9616C55.2932 18.9986 55.0531 19.0324 54.8377 19.0632C54.376 19.1309 53.9728 19.2386 53.6281 19.3864C53.2834 19.5341 53.0157 19.7341 52.8249 19.9865C52.6341 20.2327 52.5387 20.5405 52.5387 20.9098C52.5387 21.4453 52.7325 21.8546 53.1203 22.1378C53.5143 22.4148 54.0129 22.5533 54.6161 22.5533ZM75.2874 14.8622L71.6865 15.0838C71.625 14.776 71.4926 14.4991 71.2895 14.2528C71.0864 14.0005 70.8186 13.8004 70.4862 13.6527C70.16 13.4988 69.7691 13.4219 69.3136 13.4219C68.7043 13.4219 68.1903 13.5511 67.7717 13.8097C67.3532 14.062 67.1439 14.4006 67.1439 14.8253C67.1439 15.1638 67.2793 15.45 67.5501 15.6839C67.821 15.9179 68.2857 16.1056 68.9443 16.2472L71.5111 16.7642C72.8899 17.0473 73.9178 17.5028 74.5949 18.1307C75.272 18.7585 75.6105 19.5833 75.6105 20.6051C75.6105 21.5346 75.3366 22.3501 74.7888 23.0518C74.2471 23.7536 73.5023 24.3014 72.5544 24.6953C71.6126 25.0831 70.5262 25.277 69.2952 25.277C67.4178 25.277 65.9221 24.8861 64.808 24.1044C63.7 23.3165 63.0506 22.2455 62.8598 20.8913L66.7284 20.6882C66.8454 21.2607 67.1285 21.6977 67.5778 21.9993C68.0272 22.2947 68.6027 22.4425 69.3044 22.4425C69.9938 22.4425 70.5478 22.3101 70.9663 22.0455C71.3911 21.7746 71.6065 21.4268 71.6126 21.0021C71.6065 20.6451 71.4557 20.3527 71.1602 20.125C70.8648 19.8911 70.4093 19.7126 69.7938 19.5895L67.3378 19.1001C65.9528 18.8232 64.9218 18.343 64.2448 17.6598C63.5738 16.9766 63.2384 16.1056 63.2384 15.0469C63.2384 14.1359 63.4846 13.3511 63.977 12.6925C64.4756 12.0339 65.1742 11.526 66.0729 11.169C66.9777 10.812 68.0364 10.6335 69.249 10.6335C71.0402 10.6335 72.4498 11.0121 73.4777 11.7692C74.5118 12.5263 75.115 13.5573 75.2874 14.8622ZM80.9805 16.8011V25H77.0473V6.09091H80.8697V13.3203H81.0359C81.356 12.4832 81.873 11.8277 82.587 11.3537C83.301 10.8736 84.1966 10.6335 85.2738 10.6335C86.2587 10.6335 87.1173 10.849 87.8498 11.2798C88.5885 11.7045 89.1609 12.317 89.5671 13.1172C89.9796 13.9112 90.1827 14.8622 90.1765 15.9702V25H86.2433V16.6719C86.2494 15.7978 86.0278 15.1177 85.5785 14.6314C85.1353 14.1451 84.5136 13.902 83.7135 13.902C83.1779 13.902 82.704 14.0159 82.2916 14.2436C81.8853 14.4714 81.5653 14.8037 81.3314 15.2408C81.1036 15.6716 80.9867 16.1918 80.9805 16.8011ZM103.985 6.09091H107.983V18.3707C107.983 19.7495 107.654 20.956 106.995 21.9901C106.343 23.0241 105.429 23.8305 104.253 24.4091C103.078 24.9815 101.708 25.2678 100.145 25.2678C98.5749 25.2678 97.2023 24.9815 96.0266 24.4091C94.8509 23.8305 93.9369 23.0241 93.2844 21.9901C92.632 20.956 92.3057 19.7495 92.3057 18.3707V6.09091H96.3036V18.0291C96.3036 18.7493 96.4606 19.3894 96.7745 19.9496C97.0946 20.5097 97.5439 20.9498 98.1225 21.2699C98.7011 21.59 99.3751 21.75 100.145 21.75C100.92 21.75 101.594 21.59 102.167 21.2699C102.745 20.9498 103.191 20.5097 103.505 19.9496C103.825 19.3894 103.985 18.7493 103.985 18.0291V6.09091ZM114.23 6.09091V25H110.233V6.09091H114.23Z" fill="#F1F5F9"/>
</svg>
